<?xml version="1.0" encoding="utf-8"?>
<!-- Generator: $$$/GeneralStr/196=Adobe Illustrator 27.6.0, SVG Export Plug-In . SVG Version: 6.00 Build 0)  -->
<svg version="1.1" id="Logo" xmlns="http://www.w3.org/2000/svg" xmlns:xlink="http://www.w3.org/1999/xlink" x="0px" y="0px"
	 viewBox="0 0 512 512" style="enable-background:new 0 0 512 512;" xml:space="preserve">
<style type="text/css">
	.st0{fill:#FFD13E;}
</style>
<path class="st0" d="M469,1.4H43.2c-5.5-0.3-11,0.6-16.1,2.4c-5.2,1.9-9.9,4.7-14,8.4C9,15.9,5.7,20.4,3.4,25.4
	c-2.3,5-3.7,10.4-3.9,15.9V468c0.3,11.5,5,22.4,13.2,30.5c8.1,8.1,19.1,12.8,30.5,13.2H469c11.2-0.5,21.7-5.4,29.3-13.5
	c7.6-8.2,11.8-19,11.5-30.2V41.2c0.1-5.3-0.9-10.6-2.9-15.6c-2-4.9-5.1-9.4-8.9-13.1c-3.8-3.7-8.4-6.6-13.4-8.6
	C479.7,2,474.4,1.1,469,1.4z M159,426.8H84.7V199.4H159V426.8z M123.6,165c-5.2,0.2-10.4-0.7-15.2-2.6c-4.8-1.9-9.2-4.8-12.9-8.5
	c-3.7-3.7-6.5-8.1-8.4-12.9c-1.9-4.8-2.7-10-2.5-15.2c-0.2-5.2,0.6-10.5,2.6-15.4c1.9-4.9,4.8-9.3,8.5-13c3.7-3.7,8.2-6.6,13.1-8.4
	c4.9-1.9,10.1-2.7,15.4-2.4c5.2-0.2,10.4,0.7,15.2,2.6c4.8,1.9,9.2,4.8,12.9,8.5c3.7,3.7,6.5,8.1,8.4,12.9c1.9,4.8,2.7,10,2.5,15.2
	c0.2,5.2-0.6,10.5-2.6,15.4c-1.9,4.9-4.8,9.3-8.5,13c-3.7,3.7-8.2,6.6-13.1,8.4C134.1,164.4,128.8,165.3,123.6,165z M425,426.8
	h-74.6V302.5c0-29.7-10.5-50.1-37-50.1c-8.2,0.1-16.2,2.7-22.9,7.5c-6.7,4.8-11.7,11.5-14.4,19.3c-2.1,5.8-2.9,12-2.6,18.2v129.5
	h-73.4V199.4h73.4v31.9c6.5-12,16.2-21.9,28-28.7c11.8-6.8,25.3-10.2,38.9-9.9c48.2,0,84.5,31.9,84.5,99.8V426.8z"/>
</svg>
