<?xml version="1.0" encoding="utf-8"?>
<!-- Generator: $$$/GeneralStr/196=Adobe Illustrator 27.6.0, SVG Export Plug-In . SVG Version: 6.00 Build 0)  -->
<svg version="1.1" id="Logo" xmlns="http://www.w3.org/2000/svg" xmlns:xlink="http://www.w3.org/1999/xlink" x="0px" y="0px"
	 viewBox="0 0 512 512" style="enable-background:new 0 0 512 512;" xml:space="preserve">
<style type="text/css">
	.st0{fill:#FFD13E;}
</style>
<path class="st0" d="M492,386.1c-9.4,21.1-33.5,40.1-56.2,44.3c-2.3,0.4-57.8,10.4-179.3,10.4h-0.3c-121.6,0-177-10-179.4-10.4
	c-22.7-4.2-46.9-23.3-56.2-44.4c-0.8-1.9-20.4-46.9-20.4-137.3s19.6-135.5,20.4-137.4c9.4-21.1,33.6-40.1,56.2-44.3
	c2.3-0.4,57.8-10.4,179.4-10.4c121.9,0,177.3,10,179.6,10.4c22.7,4.2,46.9,23.3,56.2,44.3c0.8,1.9,20.4,47,20.4,137.4
	S492.9,384.2,492,386.1z M462.7,124.4c-5-11.2-20.7-23.6-32.8-25.8c-0.5-0.1-55.4-9.9-173.5-9.9c-118.4,0-173.3,9.8-173.8,9.9
	c-12.1,2.3-27.8,14.6-32.8,25.9c-0.2,0.3-17.6,41.5-17.6,124.3c0,82.8,17.5,124,17.7,124.4c5,11.2,20.6,23.6,32.8,25.8
	c0.5,0.1,55.4,9.9,173.5,9.9h0.3c118.1,0,173-9.8,173.5-9.9c12.1-2.3,27.8-14.6,32.8-25.9c0.2-0.4,17.7-41.6,17.7-124.3
	S462.9,124.8,462.7,124.4z M216.9,342.4c-2.6,1.6-5.6,2.5-8.5,2.5c-2.7,0-5.3-0.7-7.7-2c-5.1-2.8-8.3-8.2-8.3-14V168.7
	c0-5.8,3.1-11.2,8.2-14c5.1-2.8,11.3-2.7,16.2,0.4l128.4,79.3c4.7,2.9,7.6,8,7.6,13.5c0,5.5-2.8,10.7-7.5,13.6L216.9,342.4z
	 M224.4,197.4v102.4l82.1-51.7L224.4,197.4z"/>
</svg>
